<svg width="32" height="26" viewBox="0 0 32 26" fill="none" xmlns="http://www.w3.org/2000/svg">
<g clip-path="url(#clip0_462_1804)">
<path d="M1.05602 6.12806C1.77166 5.17211 2.39066 4.33803 3.14452 3.32223C6.50007 6.04468 9.73622 8.67025 13.1157 11.4122C18.0615 7.9617 23.0185 4.50346 28.1339 0.934692C29.2963 2.60624 30.3562 4.1304 31.5826 5.89387C28.7827 7.48815 26.0801 9.02694 23.3776 10.5658C23.1821 10.6772 22.9856 10.7871 22.7918 10.9016C20.6718 12.1533 17.7336 12.9334 16.662 14.7905C15.583 16.6604 16.3558 19.601 16.3251 22.0725C16.3133 23.0279 16.3232 23.9836 16.3232 25.0505C14.8456 25.0505 13.6042 25.0505 12.164 25.0505C12.164 22.0987 12.0608 19.2586 12.2055 16.4312C12.2834 14.9091 11.7115 14.177 10.421 13.5058C7.09631 11.7765 3.85541 9.88603 0.583598 8.05536C0.456409 7.98419 0.355613 7.86584 0.0814209 7.63224C0.36225 7.1901 0.660812 6.72001 1.05602 6.12806Z" fill="#2D5BFF"/>
<path d="M31.657 23.1896C31.6193 23.9511 31.5777 24.5291 31.5382 25.0799C28.3566 25.5289 28.209 25.3803 28.8182 21.8558C29.8164 22.2609 30.7347 22.6336 31.657 23.1896Z" fill="#2D5BFF"/>
</g>
<defs>
<clipPath id="clip0_462_1804">
<rect width="32" height="24.7887" fill="white" transform="translate(0 0.605591)"/>
</clipPath>
</defs>
</svg>
