<?xml version="1.0" standalone="no"?>
<!DOCTYPE svg PUBLIC "-//W3C//DTD SVG 20010904//EN"
 "http://www.w3.org/TR/2001/REC-SVG-20010904/DTD/svg10.dtd">
<svg version="1.0" xmlns="http://www.w3.org/2000/svg"
 width="32.000000pt" height="32.000000pt" viewBox="0 0 32.000000 32.000000"
 preserveAspectRatio="xMidYMid meet">

<g transform="translate(0.000000,32.000000) scale(0.100000,-0.100000)"
fill="#000000" stroke="none">
<path d="M85 297 c-47 -26 -85 -88 -85 -137 0 -78 82 -160 160 -160 78 0 160
82 160 160 0 78 -82 160 -160 160 -19 0 -53 -10 -75 -23z m155 -96 c13 -24 13
-71 0 -91 -7 -11 -28 -15 -80 -15 -77 0 -90 8 -90 58 0 57 14 67 90 67 58 0
71 -3 80 -19z"/>
<path d="M150 155 c0 -9 5 -15 11 -13 6 2 11 8 11 13 0 5 -5 11 -11 13 -6 2
-11 -4 -11 -13z"/>
</g>
</svg>
