<?xml version="1.0" standalone="no"?>
<!DOCTYPE svg PUBLIC "-//W3C//DTD SVG 20010904//EN"
 "http://www.w3.org/TR/2001/REC-SVG-20010904/DTD/svg10.dtd">
<svg version="1.0" xmlns="http://www.w3.org/2000/svg"
 width="512.000000pt" height="512.000000pt" viewBox="0 0 512.000000 512.000000"
 preserveAspectRatio="xMidYMid meet">

<g transform="translate(0.000000,512.000000) scale(0.100000,-0.100000)"
fill="#000000" stroke="none">
<path d="M2330 5110 c-891 -86 -1667 -619 -2060 -1415 -160 -324 -236 -605
-262 -973 -24 -335 30 -720 147 -1038 45 -123 167 -374 231 -474 208 -327 524
-641 839 -833 594 -361 1304 -466 1976 -293 429 110 811 325 1136 640 819 790
1015 2010 488 3023 -125 240 -284 451 -488 650 -385 374 -869 614 -1402 694
-151 23 -462 32 -605 19z m1190 -1601 c184 -42 345 -214 379 -403 15 -81 15
-1011 0 -1092 -34 -189 -195 -361 -379 -403 -62 -14 -1858 -14 -1920 0 -184
42 -345 214 -379 403 -15 81 -15 1011 0 1092 34 187 195 361 375 403 56 13
1867 13 1924 0z"/>
<path d="M2210 2560 l0 -409 113 65 c61 37 217 127 345 201 127 74 232 139
232 143 0 4 -105 69 -232 143 -128 74 -284 164 -345 201 l-113 65 0 -409z"/>
</g>
</svg>
