<svg width="32" height="30" viewBox="0 0 32 30" fill="none" xmlns="http://www.w3.org/2000/svg">
<path d="M1.60779 16.1312C2.97496 16.1312 4.34212 16.1312 5.70929 16.1312C8.39124 16.1312 10.6998 15.3292 13.3494 14.9785C16.6424 14.5427 19.4615 14.5341 22.6112 13.3701C24.2893 12.7499 25.7953 12.5015 26.753 11.1183C27.7854 9.62705 26.7019 5.8819 24.7692 7.92823C23.3093 9.47404 23.2434 12.1476 22.7855 14.0939C22.5103 15.2633 22.1153 16.3482 22.1153 17.5788C22.1153 17.9467 22.7569 19.6789 22.1153 19.7502C21.6991 19.7965 19.631 20.0899 19.3676 20.3534C19.3132 20.4077 20.1452 20.7466 20.3058 20.8359C20.6002 20.9994 20.9833 21.1649 21.2039 21.3855C21.6679 21.8495 21.9409 22.4576 22.4772 22.8867C22.6796 23.0486 23.5078 21.1621 23.8042 20.8493C24.4344 20.1841 25.3567 19.5089 24.1661 19.5089C23.3633 19.5089 22.6128 19.9915 21.8741 19.9915" stroke="#2D5BFF" stroke-linecap="round"/>
</svg>
