<svg width="475" height="676" viewBox="0 0 475 676" fill="none" xmlns="http://www.w3.org/2000/svg">
<g clip-path="url(#clip0_151_3)">
<path fill-rule="evenodd" clip-rule="evenodd" d="M238.207 8.45772C278.26 13.3329 315.598 25.0736 350.129 45.6983C387.652 68.1105 428.869 91.1641 444.448 131.643C460.317 172.877 452.782 220.817 432.689 260.215C414.177 296.515 375.925 316.298 340.084 336.28C308.241 354.033 274.01 361.294 238.207 368.642C191.647 378.197 142.75 406.284 100.089 385.536C56.6015 364.385 41.4093 311.289 26.5807 265.715C11.7969 220.279 1.6107 172.077 15.7912 126.453C30.1076 80.3923 61.2838 38.5753 104.267 15.7722C144.645 -5.64925 192.714 2.92042 238.207 8.45772Z" fill="white"/>
<path fill-rule="evenodd" clip-rule="evenodd" d="M154.654 499.892C191.515 516.132 229.023 525.798 267.977 527.307C310.307 528.947 356.121 531.939 387.316 508.906C419.093 485.444 433.504 445.223 433.295 405.247C433.102 368.413 408.576 334.312 386.227 301.261C366.371 271.897 339.859 249.325 312.024 225.903C275.825 195.445 245.696 149.726 199.637 144.262C152.686 138.692 116.314 171.514 83.5432 198.797C50.8717 225.997 20.9788 257.59 13.3417 299.358C5.63129 341.527 14.3951 388.864 41.7042 427.618C67.3586 464.024 112.786 481.447 154.654 499.892Z" fill="white"/>
<circle cx="238.5" cy="274.5" r="221" stroke="#2D5BFF"/>
<circle cx="238" cy="275" r="234.5" stroke="#2D5BFF"/>
<circle cx="238" cy="275" r="148" stroke="#2D5BFF" stroke-width="2"/>
</g>
<defs>
<clipPath id="clip0_151_3">
<rect width="475" height="676" fill="white"/>
</clipPath>
</defs>
</svg>
