<svg width="20" height="21" viewBox="0 0 20 21" fill="none" xmlns="http://www.w3.org/2000/svg">
<path d="M10 0.5C4.47715 0.5 0 4.97715 0 10.5C0 16.0228 4.47715 20.5 10 20.5C15.5228 20.5 20 16.0228 20 10.5C19.9936 4.97982 15.5202 0.506429 10 0.5Z" fill="#BCD0FF"/>
<path d="M15.7725 7.33337L10.0683 15.0742C9.93231 15.2547 9.72945 15.373 9.50536 15.4024C9.28127 15.4319 9.05475 15.3701 8.87668 15.2309L4.80334 11.9742C4.4439 11.6866 4.3857 11.162 4.67334 10.8025C4.96099 10.4431 5.48557 10.3849 5.84501 10.6725L9.24168 13.39L14.4308 6.34754C14.601 6.0922 14.8977 5.95103 15.2032 5.98007C15.5087 6.00912 15.7734 6.20368 15.8924 6.48652C16.0114 6.76935 15.9653 7.09469 15.7725 7.33337Z" fill="#2D5BFF"/>
</svg>
