<svg width="193" height="176" viewBox="0 0 193 176" fill="none" xmlns="http://www.w3.org/2000/svg">
<g clip-path="url(#clip0_526_98)">
<rect width="193" height="176" fill="#EEF3FF"/>
<line x1="8" y1="2" x2="58" y2="2" stroke="#2D5BFF" stroke-width="16" stroke-linecap="round"/>
<line x1="8" y1="49" x2="8" y2="2" stroke="#2D5BFF" stroke-width="16" stroke-linecap="round"/>
<line x1="8.00137" y1="168.001" x2="7.99273" y2="118.001" stroke="#2D5BFF" stroke-width="16" stroke-linecap="round"/>
<line x1="57.5011" y1="171.501" x2="7.50112" y2="171.51" stroke="#2D5BFF" stroke-width="13" stroke-linecap="round"/>
<line x1="184.97" y1="7.97017" x2="185.156" y2="57.9698" stroke="#2D5BFF" stroke-width="16" stroke-linecap="round"/>
<line x1="138.97" y1="2.20477" x2="185.97" y2="2.02983" stroke="#2D5BFF" stroke-width="16" stroke-linecap="round"/>
<line x1="186.015" y1="173.015" x2="136.015" y2="173.11" stroke="#2D5BFF" stroke-width="16" stroke-linecap="round"/>
<line x1="184.992" y1="120.912" x2="185.081" y2="167.912" stroke="#2D5BFF" stroke-width="16" stroke-linecap="round"/>
<path d="M82.316 83.0863L81.6068 83.1031C81.2299 83.1126 80.8617 82.9806 80.5678 82.7305C80.274 82.4803 80.0736 82.1284 80.0025 81.7375L78.7843 75.0502C78.7407 74.8108 78.747 74.5644 78.8028 74.3281C78.8586 74.0918 78.9625 73.8713 79.1073 73.6819C79.2521 73.4925 79.4343 73.3387 79.6413 73.2313C79.8482 73.1238 80.075 73.0653 80.3058 73.0597L82.7578 73.0015L84.0183 44.307C84.0372 43.8831 84.2076 43.4829 84.4952 43.187C84.7828 42.8911 85.1662 42.7214 85.5683 42.7121L108.034 42.1792C108.436 42.1686 108.828 42.3195 109.13 42.6015C109.432 42.8836 109.622 43.2757 109.661 43.6988L112.274 72.3015L114.716 72.2435C114.947 72.2382 115.177 72.2859 115.388 72.3834C115.6 72.4809 115.79 72.6259 115.943 72.8082C116.097 72.9905 116.211 73.2059 116.278 73.4393C116.345 73.6726 116.363 73.9185 116.331 74.1596L115.431 80.8972C115.378 81.291 115.195 81.6521 114.913 81.9158C114.632 82.1796 114.27 82.329 113.893 82.3373L113.197 82.3538L113.647 87.2594C113.668 87.489 113.644 87.7207 113.577 87.94C113.509 88.1592 113.4 88.3613 113.255 88.5337C113.11 88.706 112.933 88.8449 112.735 88.9416C112.536 89.0384 112.321 89.0909 112.103 89.0959L83.7283 89.7689C83.5097 89.7743 83.2924 89.732 83.0898 89.6448C82.8872 89.5575 82.7037 89.4272 82.5508 89.2619C82.3979 89.0966 82.2788 88.9 82.201 88.6842C82.1232 88.4684 82.0884 88.2381 82.0987 88.0077L82.316 83.0863ZM85.5027 83.0107L85.3565 86.3722L110.315 85.7803L110.01 82.4294L85.5027 83.0107ZM112.583 75.6522L82.2618 76.3714L82.8725 79.715L112.468 79.013L112.92 75.6442L112.583 75.6522ZM109.087 72.377L106.635 45.5705L87.1267 46.0332L85.9476 72.9259L109.087 72.377Z" fill="#2D5BFF"/>
<path d="M88.5577 96.6096C87.1916 96.7804 87.4191 100.462 87.4191 101.396C87.4191 102.707 88.1214 105.624 90.1708 104.485C91.7063 103.632 91.2331 101.656 90.8455 100.3C90.7385 99.9251 90.4808 99.6973 90.4554 99.2664C90.4364 98.9431 89.9263 98.829 89.8861 98.5073C89.8338 98.0888 89.1099 96.7908 88.7475 96.6096" stroke="#2D5BFF" stroke-width="3" stroke-linecap="round"/>
<path d="M103.153 92C101.787 92.1708 102.014 95.852 102.014 96.7864C102.014 98.0975 102.716 101.014 104.766 99.8755C106.301 99.0224 105.828 97.0467 105.441 95.69C105.334 95.3155 105.076 95.0877 105.051 94.6568C105.032 94.3335 104.521 94.2194 104.481 93.8977C104.429 93.4792 103.705 92.1812 103.343 92" stroke="#2D5BFF" stroke-width="3" stroke-linecap="round"/>
<path d="M99.0997 113.531C97.7426 113.299 96.3959 116.136 96.1255 117.031C95.7461 118.286 96.0736 122.033 98.3648 121.536C100.081 121.164 100.2 119.136 100.222 117.725C100.228 117.335 100.047 117.043 100.147 116.623C100.223 116.308 99.7675 116.051 99.8221 115.732C99.8932 115.316 99.5759 113.864 99.2814 113.586" stroke="#2D5BFF" stroke-width="3" stroke-linecap="round"/>
</g>
<defs>
<clipPath id="clip0_526_98">
<rect width="193" height="176" fill="white"/>
</clipPath>
</defs>
</svg>
