<svg width="57" height="66" viewBox="0 0 57 66" fill="none" xmlns="http://www.w3.org/2000/svg">
<rect x="14.7202" y="39.0042" width="27.2333" height="24.0667" fill="#2D5BFF"/>
<path d="M45.9424 23.0917H46.7368C47.1591 23.091 47.5678 23.2404 47.8901 23.5131C48.2125 23.7859 48.4274 24.1643 48.4967 24.5808L49.683 31.7058C49.7254 31.9609 49.7118 32.2221 49.643 32.4714C49.5743 32.7206 49.4522 32.9519 49.285 33.1492C49.1179 33.3465 48.9098 33.5051 48.6753 33.6139C48.4407 33.7226 48.1852 33.7791 47.9267 33.7792H45.18L43.0069 64.1887C42.9744 64.6379 42.773 65.0582 42.4432 65.3649C42.1134 65.6716 41.6796 65.8419 41.2292 65.8417H16.0637C15.6127 65.8428 15.178 65.6729 14.8474 65.3661C14.5168 65.0593 14.3149 64.6385 14.2824 64.1887L12.1164 33.7792H9.38044C9.12187 33.7791 8.86643 33.7226 8.63186 33.6139C8.39729 33.5051 8.18922 33.3465 8.02209 33.1492C7.85497 32.9519 7.7328 32.7206 7.66408 32.4714C7.59535 32.2221 7.58172 31.9609 7.62412 31.7058L8.81044 24.5808C8.87968 24.1643 9.09465 23.7859 9.41698 23.5131C9.73932 23.2404 10.1481 23.091 10.5703 23.0917H11.3505L10.9764 17.8762C10.9588 17.632 10.9917 17.3868 11.0731 17.1559C11.1544 16.925 11.2825 16.7134 11.4493 16.5342C11.6161 16.355 11.8181 16.2121 12.0426 16.1145C12.2671 16.0168 12.5093 15.9665 12.7541 15.9667H44.5387C44.7836 15.9665 45.0258 16.0168 45.2503 16.1145C45.4748 16.2121 45.6767 16.355 45.8435 16.5342C46.0103 16.7134 46.1384 16.925 46.2198 17.1559C46.3012 17.3868 46.3341 17.632 46.3164 17.8762L45.9424 23.0917ZM42.3727 23.0917L42.6257 19.5292H14.6672L14.9201 23.0917H42.3727ZM11.8599 30.2167H45.8248L45.2299 26.6542H12.0772L11.4823 30.2167H11.8599ZM15.6861 33.7792L17.7202 62.2792H39.5726L41.6068 33.7792H15.6861Z" fill="#222222"/>
<path d="M13.9333 39.0833V39.0833C17.8875 37.8347 22.0822 37.5463 26.1701 38.2421L28.3371 38.611C32.6507 39.3452 37.0396 39.5328 41.4002 39.1694L42.4333 39.0833" stroke="#222222" stroke-width="4"/>
<path d="M31.3 11.0133L29.2933 9.00666C29.22 8.93332 29.1333 8.91999 29.0867 8.91999C29.04 8.91999 28.9533 8.93332 28.88 9.00666L26.8667 11.02C26.64 11.2467 26.2867 11.6133 25.1067 11.6133L27.58 14.08C27.955 14.4545 28.4633 14.6649 28.9933 14.6649C29.5233 14.6649 30.0317 14.4545 30.4067 14.08L32.8867 11.6067C32.28 11.6067 31.7733 11.4867 31.3 11.0133ZM26.8667 4.97999L28.88 6.99332C28.9333 7.04666 29.0133 7.07999 29.0867 7.07999C29.16 7.07999 29.24 7.04666 29.2933 6.99332L31.2867 4.99999C31.76 4.50666 32.3 4.39332 32.9067 4.39332L30.4267 1.91999C30.0517 1.54546 29.5433 1.33508 29.0133 1.33508C28.4833 1.33508 27.975 1.54546 27.6 1.91999L25.1267 4.38666C26.3 4.38666 26.66 4.77332 26.8667 4.97999Z" fill="#222222"/>
<path d="M35.0733 6.56666L33.5733 5.05999H32.7333C32.3733 5.05999 32.0133 5.20666 31.7667 5.46666L29.7667 7.46666C29.58 7.65333 29.3333 7.74666 29.0867 7.74666C28.8327 7.74309 28.5895 7.64298 28.4067 7.46666L26.3933 5.44666C26.14 5.19333 25.7933 5.04666 25.4267 5.04666H24.4467L22.92 6.57999C22.5455 6.955 22.3351 7.46333 22.3351 7.99333C22.3351 8.52333 22.5455 9.03166 22.92 9.40666L24.4467 10.94H25.4333C25.7933 10.94 26.14 10.7933 26.4 10.54L28.4133 8.52666C28.6 8.33999 28.8467 8.24666 29.0933 8.24666C29.34 8.24666 29.5867 8.33999 29.7733 8.52666L31.78 10.5333C32.0333 10.7867 32.38 10.9333 32.7467 10.9333H33.5867L35.0867 9.42666C35.4628 9.04491 35.6725 8.52981 35.67 7.99391C35.6675 7.45801 35.453 6.94489 35.0733 6.56666Z" fill="#222222"/>
</svg>
