<svg width="131" height="35" viewBox="0 0 131 35" fill="none" xmlns="http://www.w3.org/2000/svg">
<rect x="4.39023" y="17.9486" width="8.12222" height="7.17778" fill="#2D5BFF"/>
<path d="M13.7021 13.2028H13.939C14.065 13.2026 14.1869 13.2471 14.283 13.3285C14.3792 13.4098 14.4433 13.5227 14.4639 13.6469L14.8177 15.7719C14.8304 15.848 14.8263 15.9259 14.8058 16.0002C14.7853 16.0746 14.7489 16.1435 14.699 16.2024C14.6492 16.2612 14.5871 16.3085 14.5172 16.341C14.4472 16.3734 14.371 16.3902 14.2939 16.3903H13.4747L12.8266 25.4598C12.8169 25.5937 12.7569 25.7191 12.6585 25.8106C12.5601 25.902 12.4307 25.9528 12.2964 25.9528H4.79092C4.65641 25.9531 4.52677 25.9024 4.42817 25.8109C4.32957 25.7194 4.26935 25.5939 4.25967 25.4598L3.61367 16.3903H2.79767C2.72055 16.3902 2.64437 16.3734 2.57441 16.341C2.50445 16.3085 2.44239 16.2612 2.39255 16.2024C2.3427 16.1435 2.30627 16.0746 2.28577 16.0002C2.26527 15.9259 2.26121 15.848 2.27386 15.7719L2.62767 13.6469C2.64832 13.5227 2.71243 13.4098 2.80857 13.3285C2.9047 13.2471 3.02661 13.2026 3.15254 13.2028H3.38523L3.27367 11.6473C3.26841 11.5744 3.27822 11.5013 3.30249 11.4324C3.32676 11.3636 3.36496 11.3005 3.41471 11.247C3.46446 11.1936 3.52469 11.151 3.59165 11.1218C3.6586 11.0927 3.73084 11.0777 3.80386 11.0778H13.2835C13.3565 11.0777 13.4287 11.0927 13.4957 11.1218C13.5626 11.151 13.6229 11.1936 13.6726 11.247C13.7224 11.3005 13.7606 11.3636 13.7848 11.4324C13.8091 11.5013 13.8189 11.5744 13.8137 11.6473L13.7021 13.2028ZM12.6375 13.2028L12.7129 12.1403H4.37442L4.44986 13.2028H12.6375ZM3.53717 15.3278H13.667L13.4896 14.2653H3.60198L3.42454 15.3278H3.53717ZM4.67829 16.3903L5.28498 24.8903H11.8024L12.409 16.3903H4.67829Z" fill="#222222"/>
<path d="M4.15555 17.9722V17.9722C5.33485 17.5998 6.58593 17.5138 7.8051 17.7213L8.45143 17.8313C9.73793 18.0503 11.0469 18.1062 12.3474 17.9979L12.6555 17.9722" stroke="#222222"/>
<g clip-path="url(#clip0_72_247)">
<path d="M9.86251 8.12995L9.11001 7.37745C9.08251 7.34995 9.05001 7.34495 9.03251 7.34495C9.01501 7.34495 8.98251 7.34995 8.95501 7.37745L8.20001 8.13245C8.11501 8.21745 7.98251 8.35495 7.54001 8.35495L8.46751 9.27995C8.60813 9.4204 8.79876 9.49929 8.99751 9.49929C9.19626 9.49929 9.38688 9.4204 9.52751 9.27995L10.4575 8.35245C10.23 8.35245 10.04 8.30745 9.86251 8.12995ZM8.20001 5.86745L8.95501 6.62245C8.97501 6.64245 9.00501 6.65495 9.03251 6.65495C9.06001 6.65495 9.09001 6.64245 9.11001 6.62245L9.85751 5.87495C10.035 5.68995 10.2375 5.64745 10.465 5.64745L9.53501 4.71995C9.39438 4.5795 9.20376 4.50061 9.00501 4.50061C8.80626 4.50061 8.61563 4.5795 8.47501 4.71995L7.54751 5.64495C7.98751 5.64495 8.12251 5.78995 8.20001 5.86745Z" fill="#222222"/>
<path d="M11.2775 6.46246L10.715 5.89746H10.4C10.265 5.89746 10.13 5.95246 10.0375 6.04996L9.28751 6.79996C9.21751 6.86996 9.12501 6.90496 9.03251 6.90496C8.93726 6.90362 8.84609 6.86607 8.77751 6.79996L8.02251 6.04246C7.92751 5.94746 7.79751 5.89246 7.66001 5.89246H7.29251L6.72001 6.46746C6.57956 6.60808 6.50067 6.79871 6.50067 6.99746C6.50067 7.19621 6.57956 7.38683 6.72001 7.52746L7.29251 8.10246H7.66251C7.79751 8.10246 7.92751 8.04746 8.02501 7.95246L8.78001 7.19746C8.85001 7.12746 8.94251 7.09246 9.03501 7.09246C9.12751 7.09246 9.22001 7.12746 9.29001 7.19746L10.0425 7.94996C10.1375 8.04496 10.2675 8.09996 10.405 8.09996H10.72L11.2825 7.53496C11.4236 7.3918 11.5022 7.19864 11.5013 6.99767C11.5003 6.79671 11.4199 6.60429 11.2775 6.46246Z" fill="#222222"/>
</g>
<g clip-path="url(#clip1_72_247)">
<path d="M114.108 5.01314C113.239 4.58789 112.295 4.58949 111.511 4.98946C111.345 4.12531 110.767 3.37905 109.897 2.9538C109.205 2.61607 108.407 2.56684 107.678 2.81692C106.949 3.06701 106.349 3.59597 106.01 4.28776C104.568 7.2354 107.772 11.7587 107.91 11.9483C107.946 11.9986 107.994 12.0393 108.05 12.0665C108.106 12.0937 108.167 12.1068 108.229 12.1044C108.463 12.0968 114.001 11.8483 115.442 8.9007C115.78 8.20814 115.829 7.4099 115.579 6.68109C115.329 5.95228 114.8 5.35243 114.108 5.01314ZM108.403 11.3441C107.853 10.5201 105.578 6.8781 106.684 4.61726C106.935 4.10406 107.38 3.71167 107.921 3.52614C108.462 3.34061 109.054 3.37707 109.568 3.62754C110.387 4.02809 110.861 4.80063 110.806 5.64177C110.801 5.71597 110.818 5.78993 110.856 5.85425C110.893 5.91858 110.948 5.97037 111.015 6.00303C111.082 6.0357 111.157 6.04777 111.231 6.03771C111.304 6.02766 111.373 5.99593 111.429 5.94655C112.059 5.38504 112.96 5.28635 113.779 5.68689C114.292 5.9387 114.684 6.38375 114.87 6.92445C115.056 7.46515 115.019 8.05736 114.769 8.57121C113.665 10.8287 109.391 11.2713 108.403 11.3441Z" fill="#2D5BFF"/>
</g>
<g clip-path="url(#clip2_72_247)">
<path d="M19.1131 11.7189C18.8854 11.8158 18.7277 11.9986 18.6738 12.217C18.4791 12.1044 18.2381 12.0913 18.0103 12.1882C17.8291 12.2655 17.686 12.4116 17.6124 12.5943C17.5388 12.777 17.5406 12.9815 17.6175 13.1629C17.946 13.9348 19.3565 14.0726 19.4162 14.0776C19.432 14.0791 19.4479 14.0766 19.4625 14.0704C19.4771 14.0642 19.4899 14.0545 19.4998 14.0421C19.5376 13.9955 20.4163 12.8836 20.0878 12.1117C20.0105 11.9305 19.8644 11.7874 19.6817 11.7137C19.4989 11.6401 19.2945 11.642 19.1131 11.7189ZM19.382 13.8812C19.1307 13.8496 18.0459 13.6799 17.794 13.0878C17.7369 12.9532 17.7356 12.8015 17.7902 12.666C17.8448 12.5304 17.951 12.422 18.0854 12.3646C18.2999 12.2733 18.5286 12.311 18.6819 12.4625C18.6954 12.4758 18.7126 12.4848 18.7313 12.4884C18.75 12.492 18.7693 12.4899 18.7868 12.4824C18.8043 12.475 18.8192 12.4625 18.8296 12.4466C18.8399 12.4307 18.8454 12.412 18.8451 12.393C18.8421 12.1772 18.9737 11.9866 19.1882 11.8953C19.3228 11.8383 19.4745 11.8369 19.61 11.8916C19.7456 11.9462 19.8539 12.0524 19.9113 12.1868C20.1629 12.778 19.5332 13.6782 19.382 13.8812Z" fill="#2D5BFF"/>
</g>
<g clip-path="url(#clip3_72_247)">
<path d="M49.9025 26.7442C49.574 26.3688 49.1251 26.1815 48.673 26.2154C48.7665 25.7718 48.6404 25.302 48.3119 24.9267C48.0501 24.6282 47.6806 24.4458 47.2845 24.4194C46.8883 24.393 46.4979 24.5249 46.1989 24.786C44.9266 25.8994 45.5477 28.687 45.5755 28.8046C45.5826 28.8357 45.5974 28.8646 45.6184 28.8887C45.6395 28.9127 45.6661 28.9312 45.6961 28.9424C45.8089 28.9855 48.4896 29.9706 49.7618 28.8572C50.0603 28.5954 50.2427 28.2259 50.2691 27.8298C50.2955 27.4336 50.1636 27.0432 49.9025 26.7442ZM45.9302 28.6158C45.8331 28.1147 45.4775 25.9308 46.4534 25.0768C46.6753 24.8831 46.9649 24.7853 47.2588 24.8049C47.5527 24.8244 47.8268 24.9598 48.0211 25.1812C48.3305 25.5347 48.4019 25.9962 48.208 26.3849C48.1909 26.4192 48.1844 26.4578 48.1893 26.4958C48.1942 26.5338 48.2103 26.5694 48.2355 26.5983C48.2608 26.6271 48.294 26.6478 48.331 26.6577C48.368 26.6676 48.4071 26.6663 48.4434 26.6539C48.8548 26.5127 49.3023 26.6452 49.6117 26.9987C49.8054 27.2206 49.9032 27.5102 49.8836 27.8041C49.8641 28.098 49.7287 28.3721 49.5073 28.5664C48.533 29.4191 46.4139 28.7779 45.9302 28.6158Z" fill="#2D5BFF"/>
</g>
<g clip-path="url(#clip4_72_247)">
<path d="M42.9492 7.72296C42.5431 8.01249 42.312 8.44063 42.3009 8.89383C41.8688 8.75666 41.3887 8.83554 40.9826 9.12507C40.6596 9.35591 40.4414 9.70545 40.3758 10.097C40.3102 10.4886 40.4025 10.8901 40.6326 11.2137C41.6141 12.5903 44.4497 12.2493 44.5694 12.2333C44.6011 12.2293 44.6313 12.2175 44.6573 12.199C44.6834 12.1804 44.7044 12.1557 44.7185 12.127C44.7726 12.0191 46.0193 9.44953 45.0378 8.07292C44.8069 7.74992 44.4574 7.53168 44.0659 7.46607C43.6743 7.40046 43.2727 7.49284 42.9492 7.72296ZM44.4168 11.8616C43.9085 11.9084 41.7001 12.0452 40.9473 10.9893C40.7766 10.7493 40.7081 10.4513 40.7568 10.1608C40.8055 9.87036 40.9674 9.61103 41.207 9.43973C41.5895 9.16701 42.0559 9.14179 42.4233 9.3734C42.4557 9.3938 42.4935 9.40411 42.5318 9.403C42.5701 9.4019 42.6072 9.38943 42.6384 9.36719C42.6696 9.34495 42.6934 9.31394 42.707 9.27809C42.7205 9.24225 42.7231 9.20319 42.7143 9.16589C42.6147 8.74243 42.791 8.31032 43.1735 8.03761C43.4136 7.86693 43.7115 7.79842 44.002 7.84709C44.2925 7.89577 44.5518 8.05766 44.7231 8.29726C45.4748 9.35155 44.6262 11.3964 44.4168 11.8616Z" fill="#2D5BFF"/>
</g>
<g clip-path="url(#clip5_72_247)">
<path d="M71.4372 3.43797C70.5057 3.70128 69.8034 4.33237 69.4864 5.15314C68.7867 4.61979 67.8579 4.44978 66.9264 4.71309C66.1852 4.92352 65.5577 5.41939 65.1816 6.09189C64.8055 6.7644 64.7116 7.55862 64.9203 8.30032C65.8129 11.4578 71.2171 12.6902 71.4463 12.7394C71.5068 12.7528 71.5698 12.751 71.6294 12.7341C71.6891 12.7172 71.7437 12.6858 71.7882 12.6427C71.9578 12.4808 75.917 8.60156 75.0244 5.44405C74.8139 4.70282 74.3181 4.07533 73.6456 3.69925C72.9731 3.32317 72.1788 3.2292 71.4372 3.43797ZM71.4107 11.9603C70.4514 11.7132 66.3267 10.5181 65.6421 8.0963C65.4873 7.54601 65.557 6.95679 65.836 6.45786C66.1151 5.95894 66.5805 5.59102 67.1304 5.4348C68.0078 5.18679 68.8765 5.44588 69.3963 6.1095C69.4422 6.168 69.5044 6.21154 69.5751 6.23457C69.6458 6.25761 69.7218 6.25911 69.7933 6.23889C69.8649 6.21866 69.9288 6.17762 69.977 6.12098C70.0252 6.06434 70.0554 5.99465 70.0639 5.92078C70.1589 5.08188 70.7638 4.4077 71.6412 4.15968C72.1915 4.0049 72.7807 4.07466 73.2796 4.35368C73.7785 4.63269 74.1464 5.09818 74.3027 5.64807C74.9863 8.06627 72.0977 11.2473 71.4107 11.9603Z" fill="#2D5BFF"/>
</g>
<g clip-path="url(#clip6_72_247)">
<path d="M93.7417 35.9923C94.7849 35.5658 95.5149 34.7438 95.7742 33.7528C96.6536 34.2783 97.7503 34.3535 98.7935 33.927C99.6236 33.5866 100.285 32.9308 100.632 32.1036C100.979 31.2763 100.984 30.3452 100.645 29.5144C99.1994 25.9781 92.7859 25.2594 92.5143 25.2325C92.4425 25.2249 92.3699 25.2352 92.3031 25.2625C92.2363 25.2898 92.1773 25.3333 92.1314 25.389C91.9564 25.5985 87.8834 30.6045 89.3291 34.1407C89.6695 34.9708 90.3253 35.6318 91.1526 35.979C91.9798 36.3261 92.911 36.3309 93.7417 35.9923ZM92.6574 26.1291C93.7996 26.2895 98.728 27.1325 99.8369 29.8448C100.088 30.4612 100.084 31.152 99.8268 31.7658C99.5692 32.3795 99.0788 32.866 98.4631 33.1187C97.4805 33.5204 96.4416 33.3343 95.7534 32.6346C95.6926 32.5729 95.6149 32.5307 95.5301 32.5133C95.4453 32.4959 95.3572 32.5041 95.2771 32.5368C95.197 32.5696 95.1284 32.6254 95.0801 32.6973C95.0317 32.7691 95.0059 32.8537 95.0057 32.9402C95.0055 33.9232 94.3939 34.7823 93.4113 35.1841C92.7949 35.4351 92.1041 35.4315 91.4904 35.174C90.8766 34.9164 90.3901 34.426 90.1374 33.8103C89.0302 31.102 91.9559 27.0439 92.6574 26.1291Z" fill="#2D5BFF"/>
</g>
<path d="M22.4754 20.872C22.6994 21.144 22.9421 21.336 23.2034 21.448C23.4701 21.56 23.7581 21.616 24.0674 21.616C24.3661 21.616 24.6354 21.56 24.8754 21.448C25.1154 21.336 25.3181 21.1653 25.4834 20.936C25.6541 20.7067 25.7848 20.4187 25.8754 20.072C25.9661 19.72 26.0114 19.3067 26.0114 18.832C26.0114 18.352 25.9714 17.9467 25.8914 17.616C25.8168 17.28 25.7074 17.008 25.5634 16.8C25.4194 16.592 25.2434 16.44 25.0354 16.344C24.8328 16.248 24.6008 16.2 24.3394 16.2C23.9288 16.2 23.5794 16.288 23.2914 16.464C23.0034 16.6347 22.7314 16.8773 22.4754 17.192V20.872ZM22.3714 15.912C22.7074 15.5333 23.0888 15.2267 23.5154 14.992C23.9421 14.7573 24.4434 14.64 25.0194 14.64C25.4674 14.64 25.8754 14.7333 26.2434 14.92C26.6168 15.1067 26.9368 15.3787 27.2034 15.736C27.4754 16.088 27.6834 16.5253 27.8274 17.048C27.9768 17.5653 28.0514 18.16 28.0514 18.832C28.0514 19.4453 27.9688 20.0133 27.8034 20.536C27.6381 21.0587 27.4008 21.512 27.0914 21.896C26.7874 22.28 26.4168 22.5813 25.9794 22.8C25.5474 23.0133 25.0621 23.12 24.5234 23.12C24.0648 23.12 23.6728 23.0507 23.3474 22.912C23.0221 22.768 22.7314 22.5707 22.4754 22.32V25.68H20.4994V14.792H21.7074C21.9634 14.792 22.1314 14.912 22.2114 15.152L22.3714 15.912ZM31.6412 14.792V23H29.6572V14.792H31.6412ZM31.9132 12.4C31.9132 12.5707 31.8785 12.7307 31.8092 12.88C31.7399 13.0293 31.6465 13.16 31.5292 13.272C31.4172 13.384 31.2839 13.4747 31.1292 13.544C30.9745 13.608 30.8092 13.64 30.6332 13.64C30.4625 13.64 30.2999 13.608 30.1452 13.544C29.9959 13.4747 29.8652 13.384 29.7532 13.272C29.6412 13.16 29.5505 13.0293 29.4812 12.88C29.4172 12.7307 29.3852 12.5707 29.3852 12.4C29.3852 12.224 29.4172 12.0587 29.4812 11.904C29.5505 11.7493 29.6412 11.616 29.7532 11.504C29.8652 11.392 29.9959 11.304 30.1452 11.24C30.2999 11.1707 30.4625 11.136 30.6332 11.136C30.8092 11.136 30.9745 11.1707 31.1292 11.24C31.2839 11.304 31.4172 11.392 31.5292 11.504C31.6465 11.616 31.7399 11.7493 31.8092 11.904C31.8785 12.0587 31.9132 12.224 31.9132 12.4ZM40.9837 23H39.0797C38.9357 23 38.8184 22.9627 38.7277 22.888C38.6424 22.8133 38.5704 22.728 38.5117 22.632L36.7757 19.776C36.749 19.8667 36.717 19.952 36.6797 20.032C36.6477 20.112 36.6104 20.1867 36.5677 20.256L35.0317 22.632C34.973 22.7227 34.901 22.808 34.8157 22.888C34.7304 22.9627 34.6237 23 34.4957 23H32.7277L35.5437 18.768L32.8397 14.792H34.7437C34.8877 14.792 34.9944 14.8133 35.0637 14.856C35.133 14.8933 35.1944 14.9573 35.2477 15.048L36.9677 17.784C37.0264 17.6027 37.109 17.424 37.2157 17.248L38.5997 15.088C38.717 14.8907 38.869 14.792 39.0557 14.792H40.8717L38.1757 18.68L40.9837 23ZM42.0151 23V14.792H43.2231C43.4791 14.792 43.6471 14.912 43.7271 15.152L43.8551 15.76C43.9991 15.6 44.1484 15.4533 44.3031 15.32C44.4631 15.1867 44.6311 15.072 44.8071 14.976C44.9884 14.88 45.1804 14.8053 45.3831 14.752C45.5911 14.6933 45.8177 14.664 46.0631 14.664C46.5804 14.664 47.0044 14.8053 47.3351 15.088C47.6711 15.3653 47.9217 15.736 48.0871 16.2C48.2151 15.928 48.3751 15.696 48.5671 15.504C48.7591 15.3067 48.9697 15.1467 49.1991 15.024C49.4284 14.9013 49.6711 14.8107 49.9271 14.752C50.1884 14.6933 50.4497 14.664 50.7111 14.664C51.1644 14.664 51.5671 14.7333 51.9191 14.872C52.2711 15.0107 52.5671 15.2133 52.8071 15.48C53.0471 15.7467 53.2284 16.072 53.3511 16.456C53.4791 16.84 53.5431 17.28 53.5431 17.776V23H51.5671V17.776C51.5671 17.2533 51.4524 16.8613 51.2231 16.6C50.9937 16.3333 50.6577 16.2 50.2151 16.2C50.0124 16.2 49.8231 16.2347 49.6471 16.304C49.4764 16.3733 49.3244 16.4747 49.1911 16.608C49.0631 16.736 48.9617 16.8987 48.8871 17.096C48.8124 17.2933 48.7751 17.52 48.7751 17.776V23H46.7911V17.776C46.7911 17.2267 46.6791 16.8267 46.4551 16.576C46.2364 16.3253 45.9137 16.2 45.4871 16.2C45.1991 16.2 44.9297 16.272 44.6791 16.416C44.4337 16.5547 44.2044 16.7467 43.9911 16.992V23H42.0151ZM60.7093 17.952C60.7093 17.696 60.672 17.456 60.5973 17.232C60.528 17.0027 60.4213 16.8027 60.2773 16.632C60.1333 16.4613 59.9493 16.328 59.7253 16.232C59.5066 16.1307 59.2506 16.08 58.9573 16.08C58.3866 16.08 57.936 16.2427 57.6053 16.568C57.28 16.8933 57.072 17.3547 56.9813 17.952H60.7093ZM56.9413 19.144C56.9733 19.5653 57.048 19.9307 57.1653 20.24C57.2826 20.544 57.4373 20.7973 57.6293 21C57.8213 21.1973 58.048 21.3467 58.3093 21.448C58.576 21.544 58.8693 21.592 59.1893 21.592C59.5093 21.592 59.784 21.5547 60.0133 21.48C60.248 21.4053 60.4506 21.3227 60.6213 21.232C60.7973 21.1413 60.9493 21.0587 61.0773 20.984C61.2106 20.9093 61.3386 20.872 61.4613 20.872C61.6266 20.872 61.7493 20.9333 61.8293 21.056L62.3973 21.776C62.1786 22.032 61.9333 22.248 61.6613 22.424C61.3893 22.5947 61.104 22.7333 60.8053 22.84C60.512 22.9413 60.2106 23.0133 59.9013 23.056C59.5973 23.0987 59.3013 23.12 59.0133 23.12C58.4426 23.12 57.912 23.0267 57.4213 22.84C56.9306 22.648 56.504 22.368 56.1413 22C55.7786 21.6267 55.4933 21.168 55.2853 20.624C55.0773 20.0747 54.9733 19.44 54.9733 18.72C54.9733 18.16 55.064 17.6347 55.2453 17.144C55.4266 16.648 55.6853 16.2187 56.0213 15.856C56.3626 15.488 56.776 15.1973 57.2613 14.984C57.752 14.7707 58.304 14.664 58.9173 14.664C59.4346 14.664 59.912 14.7467 60.3493 14.912C60.7866 15.0773 61.1626 15.32 61.4773 15.64C61.792 15.9547 62.0373 16.344 62.2133 16.808C62.3946 17.2667 62.4853 17.792 62.4853 18.384C62.4853 18.6827 62.4533 18.8853 62.3893 18.992C62.3253 19.0933 62.2026 19.144 62.0213 19.144H56.9413ZM68.3042 19.496C67.7335 19.5227 67.2535 19.5733 66.8642 19.648C66.4749 19.7173 66.1629 19.808 65.9282 19.92C65.6935 20.032 65.5255 20.1627 65.4242 20.312C65.3229 20.4613 65.2722 20.624 65.2722 20.8C65.2722 21.1467 65.3735 21.3947 65.5762 21.544C65.7842 21.6933 66.0535 21.768 66.3842 21.768C66.7895 21.768 67.1389 21.696 67.4322 21.552C67.7309 21.4027 68.0215 21.1787 68.3042 20.88V19.496ZM63.7762 15.936C64.7202 15.072 65.8562 14.64 67.1842 14.64C67.6642 14.64 68.0935 14.72 68.4722 14.88C68.8509 15.0347 69.1709 15.2533 69.4322 15.536C69.6935 15.8133 69.8909 16.1467 70.0242 16.536C70.1629 16.9253 70.2322 17.352 70.2322 17.816V23H69.3362C69.1495 23 69.0055 22.9733 68.9042 22.92C68.8029 22.8613 68.7229 22.7467 68.6642 22.576L68.4882 21.984C68.2802 22.1707 68.0775 22.336 67.8802 22.48C67.6829 22.6187 67.4775 22.736 67.2642 22.832C67.0509 22.928 66.8215 23 66.5762 23.048C66.3362 23.1013 66.0695 23.128 65.7762 23.128C65.4295 23.128 65.1095 23.0827 64.8162 22.992C64.5229 22.896 64.2695 22.7547 64.0562 22.568C63.8429 22.3813 63.6775 22.1493 63.5602 21.872C63.4429 21.5947 63.3842 21.272 63.3842 20.904C63.3842 20.696 63.4189 20.4907 63.4882 20.288C63.5575 20.08 63.6695 19.8827 63.8242 19.696C63.9842 19.5093 64.1895 19.3333 64.4402 19.168C64.6909 19.0027 64.9975 18.8587 65.3602 18.736C65.7282 18.6133 66.1549 18.5147 66.6402 18.44C67.1255 18.36 67.6802 18.312 68.3042 18.296V17.816C68.3042 17.2667 68.1869 16.8613 67.9522 16.6C67.7175 16.3333 67.3789 16.2 66.9362 16.2C66.6162 16.2 66.3495 16.2373 66.1362 16.312C65.9282 16.3867 65.7442 16.472 65.5842 16.568C65.4242 16.6587 65.2775 16.7413 65.1442 16.816C65.0162 16.8907 64.8722 16.928 64.7122 16.928C64.5735 16.928 64.4562 16.8933 64.3602 16.824C64.2642 16.7493 64.1869 16.664 64.1282 16.568L63.7762 15.936ZM77.9732 16.528C77.9145 16.6027 77.8559 16.6613 77.7972 16.704C77.7439 16.7467 77.6639 16.768 77.5572 16.768C77.4559 16.768 77.3572 16.7387 77.2612 16.68C77.1652 16.616 77.0505 16.5467 76.9172 16.472C76.7839 16.392 76.6239 16.3227 76.4372 16.264C76.2559 16.2 76.0292 16.168 75.7572 16.168C75.4105 16.168 75.1065 16.232 74.8452 16.36C74.5839 16.4827 74.3652 16.6613 74.1892 16.896C74.0185 17.1307 73.8905 17.416 73.8052 17.752C73.7199 18.0827 73.6772 18.4587 73.6772 18.88C73.6772 19.3173 73.7225 19.7067 73.8132 20.048C73.9092 20.3893 74.0452 20.6773 74.2212 20.912C74.3972 21.1413 74.6105 21.3173 74.8612 21.44C75.1119 21.5573 75.3945 21.616 75.7092 21.616C76.0239 21.616 76.2772 21.5787 76.4692 21.504C76.6665 21.424 76.8319 21.3387 76.9652 21.248C77.0985 21.152 77.2132 21.0667 77.3092 20.992C77.4105 20.912 77.5225 20.872 77.6452 20.872C77.8052 20.872 77.9252 20.9333 78.0052 21.056L78.5732 21.776C78.3545 22.032 78.1172 22.248 77.8612 22.424C77.6052 22.5947 77.3385 22.7333 77.0612 22.84C76.7892 22.9413 76.5065 23.0133 76.2132 23.056C75.9252 23.0987 75.6372 23.12 75.3492 23.12C74.8425 23.12 74.3652 23.0267 73.9172 22.84C73.4692 22.648 73.0772 22.3707 72.7412 22.008C72.4052 21.6453 72.1385 21.2027 71.9412 20.68C71.7492 20.152 71.6532 19.552 71.6532 18.88C71.6532 18.2773 71.7385 17.72 71.9092 17.208C72.0852 16.6907 72.3412 16.2453 72.6772 15.872C73.0132 15.4933 73.4292 15.1973 73.9252 14.984C74.4212 14.7707 74.9919 14.664 75.6372 14.664C76.2505 14.664 76.7865 14.7627 77.2452 14.96C77.7092 15.1573 78.1252 15.44 78.4932 15.808L77.9732 16.528ZM83.3033 14.664C83.9113 14.664 84.4633 14.7627 84.9593 14.96C85.4606 15.1573 85.8873 15.4373 86.2393 15.8C86.5966 16.1627 86.8713 16.6053 87.0633 17.128C87.2553 17.6507 87.3513 18.2347 87.3513 18.88C87.3513 19.5307 87.2553 20.1173 87.0633 20.64C86.8713 21.1627 86.5966 21.608 86.2393 21.976C85.8873 22.344 85.4606 22.6267 84.9593 22.824C84.4633 23.0213 83.9113 23.12 83.3033 23.12C82.69 23.12 82.1326 23.0213 81.6313 22.824C81.13 22.6267 80.7006 22.344 80.3433 21.976C79.9913 21.608 79.7166 21.1627 79.5193 20.64C79.3273 20.1173 79.2313 19.5307 79.2313 18.88C79.2313 18.2347 79.3273 17.6507 79.5193 17.128C79.7166 16.6053 79.9913 16.1627 80.3433 15.8C80.7006 15.4373 81.13 15.1573 81.6313 14.96C82.1326 14.7627 82.69 14.664 83.3033 14.664ZM83.3033 21.6C83.986 21.6 84.49 21.3707 84.8153 20.912C85.146 20.4533 85.3113 19.7813 85.3113 18.896C85.3113 18.0107 85.146 17.336 84.8153 16.872C84.49 16.408 83.986 16.176 83.3033 16.176C82.61 16.176 82.0953 16.4107 81.7593 16.88C81.4286 17.344 81.2633 18.016 81.2633 18.896C81.2633 19.776 81.4286 20.448 81.7593 20.912C82.0953 21.3707 82.61 21.6 83.3033 21.6ZM89.2317 23V16.28L88.5197 16.168C88.365 16.136 88.2397 16.0827 88.1437 16.008C88.053 15.928 88.0077 15.816 88.0077 15.672V14.864H89.2317V14.4C89.2317 13.9307 89.301 13.5093 89.4397 13.136C89.5837 12.7627 89.7864 12.4453 90.0477 12.184C90.3144 11.9227 90.637 11.7227 91.0157 11.584C91.3944 11.4453 91.821 11.376 92.2957 11.376C92.6744 11.376 93.0264 11.4267 93.3517 11.528L93.3117 12.512C93.3064 12.5867 93.285 12.648 93.2477 12.696C93.2104 12.744 93.1597 12.7813 93.0957 12.808C93.037 12.8293 92.9677 12.8453 92.8877 12.856C92.8077 12.8613 92.7224 12.864 92.6317 12.864C92.397 12.864 92.1864 12.8907 91.9997 12.944C91.8184 12.992 91.6637 13.08 91.5357 13.208C91.4077 13.3307 91.309 13.496 91.2397 13.704C91.1757 13.9067 91.1437 14.16 91.1437 14.464V14.864H94.4157V14.136C94.4157 13.6667 94.485 13.2453 94.6237 12.872C94.7677 12.4987 94.9704 12.1813 95.2317 11.92C95.4984 11.6587 95.821 11.4587 96.1997 11.32C96.5784 11.1813 97.005 11.112 97.4797 11.112C97.6664 11.112 97.845 11.1253 98.0157 11.152C98.1917 11.1733 98.365 11.208 98.5357 11.256L98.4877 12.248C98.477 12.4027 98.405 12.5013 98.2717 12.544C98.1437 12.5813 97.9917 12.6 97.8157 12.6C97.581 12.6 97.3704 12.6267 97.1837 12.68C97.0024 12.728 96.8477 12.816 96.7197 12.944C96.5917 13.0667 96.493 13.232 96.4237 13.44C96.3597 13.6427 96.3277 13.896 96.3277 14.2V14.864H98.4557V16.272H96.3917V23H94.4157V16.272H91.2077V23H89.2317ZM104.647 17.952C104.647 17.696 104.609 17.456 104.535 17.232C104.465 17.0027 104.359 16.8027 104.215 16.632C104.071 16.4613 103.887 16.328 103.663 16.232C103.444 16.1307 103.188 16.08 102.895 16.08C102.324 16.08 101.873 16.2427 101.543 16.568C101.217 16.8933 101.009 17.3547 100.919 17.952H104.647ZM100.879 19.144C100.911 19.5653 100.985 19.9307 101.103 20.24C101.22 20.544 101.375 20.7973 101.567 21C101.759 21.1973 101.985 21.3467 102.247 21.448C102.513 21.544 102.807 21.592 103.127 21.592C103.447 21.592 103.721 21.5547 103.951 21.48C104.185 21.4053 104.388 21.3227 104.559 21.232C104.735 21.1413 104.887 21.0587 105.015 20.984C105.148 20.9093 105.276 20.872 105.399 20.872C105.564 20.872 105.687 20.9333 105.767 21.056L106.335 21.776C106.116 22.032 105.871 22.248 105.599 22.424C105.327 22.5947 105.041 22.7333 104.743 22.84C104.449 22.9413 104.148 23.0133 103.839 23.056C103.535 23.0987 103.239 23.12 102.951 23.12C102.38 23.12 101.849 23.0267 101.359 22.84C100.868 22.648 100.441 22.368 100.079 22C99.7161 21.6267 99.4308 21.168 99.2228 20.624C99.0148 20.0747 98.9108 19.44 98.9108 18.72C98.9108 18.16 99.0015 17.6347 99.1828 17.144C99.3641 16.648 99.6228 16.2187 99.9588 15.856C100.3 15.488 100.713 15.1973 101.199 14.984C101.689 14.7707 102.241 14.664 102.855 14.664C103.372 14.664 103.849 14.7467 104.287 14.912C104.724 15.0773 105.1 15.32 105.415 15.64C105.729 15.9547 105.975 16.344 106.151 16.808C106.332 17.2667 106.423 17.792 106.423 18.384C106.423 18.6827 106.391 18.8853 106.327 18.992C106.263 19.0933 106.14 19.144 105.959 19.144H100.879ZM113.194 17.952C113.194 17.696 113.156 17.456 113.082 17.232C113.012 17.0027 112.906 16.8027 112.762 16.632C112.618 16.4613 112.434 16.328 112.21 16.232C111.991 16.1307 111.735 16.08 111.442 16.08C110.871 16.08 110.42 16.2427 110.09 16.568C109.764 16.8933 109.556 17.3547 109.466 17.952H113.194ZM109.426 19.144C109.458 19.5653 109.532 19.9307 109.65 20.24C109.767 20.544 109.922 20.7973 110.114 21C110.306 21.1973 110.532 21.3467 110.794 21.448C111.06 21.544 111.354 21.592 111.674 21.592C111.994 21.592 112.268 21.5547 112.498 21.48C112.732 21.4053 112.935 21.3227 113.106 21.232C113.282 21.1413 113.434 21.0587 113.562 20.984C113.695 20.9093 113.823 20.872 113.946 20.872C114.111 20.872 114.234 20.9333 114.314 21.056L114.882 21.776C114.663 22.032 114.418 22.248 114.146 22.424C113.874 22.5947 113.588 22.7333 113.29 22.84C112.996 22.9413 112.695 23.0133 112.386 23.056C112.082 23.0987 111.786 23.12 111.498 23.12C110.927 23.12 110.396 23.0267 109.906 22.84C109.415 22.648 108.988 22.368 108.626 22C108.263 21.6267 107.978 21.168 107.77 20.624C107.562 20.0747 107.458 19.44 107.458 18.72C107.458 18.16 107.548 17.6347 107.73 17.144C107.911 16.648 108.17 16.2187 108.506 15.856C108.847 15.488 109.26 15.1973 109.746 14.984C110.236 14.7707 110.788 14.664 111.402 14.664C111.919 14.664 112.396 14.7467 112.834 14.912C113.271 15.0773 113.647 15.32 113.962 15.64C114.276 15.9547 114.522 16.344 114.698 16.808C114.879 17.2667 114.97 17.792 114.97 18.384C114.97 18.6827 114.938 18.8853 114.874 18.992C114.81 19.0933 114.687 19.144 114.506 19.144H109.426Z" fill="#222222"/>
<defs>
<clipPath id="clip0_72_247">
<rect width="6" height="6" fill="white" transform="translate(6 4)"/>
</clipPath>
<clipPath id="clip1_72_247">
<rect width="12" height="12" fill="white" transform="translate(107.272) rotate(26.061)"/>
</clipPath>
<clipPath id="clip2_72_247">
<rect width="3.06811" height="3.06811" fill="white" transform="translate(17 12.2013) rotate(-23.0514)"/>
</clipPath>
<clipPath id="clip3_72_247">
<rect width="6.18301" height="6.18301" fill="white" transform="translate(47.6528 23) rotate(48.8087)"/>
</clipPath>
<clipPath id="clip4_72_247">
<rect width="6.18301" height="6.18301" fill="white" transform="translate(39 9.58948) rotate(-35.4878)"/>
</clipPath>
<clipPath id="clip5_72_247">
<rect width="12" height="12" fill="white" transform="translate(63 4.26428) rotate(-15.7848)"/>
</clipPath>
<clipPath id="clip6_72_247">
<rect width="13.9717" height="13.9717" fill="white" transform="translate(103.395 33.9326) rotate(157.764)"/>
</clipPath>
</defs>
</svg>
