<svg width="428" height="149" viewBox="0 0 428 149" fill="none" xmlns="http://www.w3.org/2000/svg">
<g clip-path="url(#clip0_528_146)">
<path opacity="0.2" d="M205.906 35.5867L199.054 36.2094C198.911 36.2222 198.773 36.2659 198.649 36.3375C198.525 36.4091 198.418 36.5069 198.336 36.624L194.37 42.2468C194.253 42.412 194.089 42.5375 193.898 42.6063C193.708 42.6751 193.501 42.6839 193.306 42.6315C193.11 42.5791 192.935 42.4681 192.805 42.3133C192.674 42.1586 192.595 41.9675 192.576 41.766L191.953 34.9138C191.941 34.7712 191.897 34.6331 191.825 34.5091C191.754 34.3851 191.656 34.2782 191.539 34.1958L185.916 30.2304C185.751 30.1136 185.625 29.9489 185.556 29.7585C185.488 29.5682 185.479 29.3613 185.531 29.1658C185.584 28.9703 185.695 28.7956 185.849 28.6651C186.004 28.5347 186.195 28.4548 186.397 28.4362L193.249 27.8135C193.391 27.8007 193.53 27.757 193.654 27.6854C193.778 27.6138 193.885 27.5161 193.967 27.3989L197.932 21.7762C198.049 21.6109 198.214 21.4854 198.404 21.4166C198.595 21.3478 198.801 21.339 198.997 21.3914C199.192 21.4438 199.367 21.5548 199.498 21.7096C199.628 21.8644 199.708 22.0554 199.726 22.2569L200.349 29.1091C200.362 29.2517 200.406 29.3898 200.477 29.5138C200.549 29.6378 200.647 29.7447 200.764 29.8271L206.387 33.7925C206.552 33.9093 206.677 34.074 206.746 34.2644C206.815 34.4547 206.824 34.6616 206.771 34.8571C206.719 35.0526 206.608 35.2273 206.453 35.3578C206.298 35.4883 206.107 35.5681 205.906 35.5867Z" fill="#2D5BFF"/>
<path d="M206.963 32.975L201.346 29.0112L200.723 22.1602C200.686 21.7548 200.526 21.3704 200.263 21.059C200.001 20.7475 199.65 20.5241 199.256 20.4187C198.863 20.3133 198.447 20.3311 198.064 20.4697C197.681 20.6082 197.35 20.8609 197.115 21.1935L193.15 26.8072L186.299 27.4303C185.893 27.4672 185.509 27.6277 185.197 27.89C184.886 28.1522 184.663 28.5037 184.557 28.897C184.452 29.2903 184.47 29.7064 184.608 30.0893C184.747 30.4721 184.999 30.8033 185.332 31.038L190.941 35.0153L191.565 41.8626C191.602 42.2681 191.763 42.6525 192.025 42.9639C192.287 43.2753 192.639 43.4988 193.032 43.6042C193.425 43.7096 193.841 43.6918 194.224 43.5532C194.607 43.4147 194.938 43.162 195.173 42.8293L199.137 37.2126L205.988 36.5895C206.393 36.5526 206.778 36.3921 207.089 36.1298C207.4 35.8676 207.624 35.5161 207.729 35.1228C207.835 34.7295 207.817 34.3134 207.678 33.9305C207.54 33.5477 207.287 33.2165 206.954 32.9818L206.963 32.975ZM198.96 35.2227C198.673 35.2485 198.395 35.3365 198.146 35.4804C197.897 35.6243 197.682 35.8208 197.516 36.0562L193.557 41.6548L192.934 34.8232C192.908 34.5379 192.82 34.2616 192.677 34.0135C192.533 33.7653 192.338 33.5512 192.104 33.3857L186.505 29.4268L193.333 28.7976C193.619 28.7712 193.895 28.6834 194.143 28.5402C194.391 28.3969 194.605 28.2015 194.771 27.9676L198.73 22.369L199.359 29.197C199.385 29.4837 199.473 29.7613 199.617 30.0106C199.761 30.2599 199.957 30.4749 200.193 30.6406L205.791 34.5996L198.96 35.2227ZM203.375 20.4883C203.443 20.2322 203.611 20.0138 203.841 19.8811C204.07 19.7485 204.343 19.7126 204.6 19.7812L206.531 20.2989L207.049 18.367C207.118 18.1108 207.285 17.8924 207.515 17.7598C207.745 17.6272 208.018 17.5913 208.274 17.6599C208.53 17.7286 208.748 17.8962 208.881 18.1258C209.014 18.3555 209.05 18.6285 208.981 18.8847L208.463 20.8165L210.395 21.3342C210.651 21.4028 210.87 21.5704 211.002 21.8001C211.135 22.0298 211.171 22.3027 211.102 22.5589C211.034 22.8151 210.866 23.0335 210.636 23.1661C210.407 23.2987 210.134 23.3347 209.877 23.266L207.946 22.7484L207.428 24.6802C207.359 24.9364 207.192 25.1548 206.962 25.2874C206.732 25.42 206.459 25.456 206.203 25.3873C205.947 25.3187 205.729 25.1511 205.596 24.9214C205.463 24.6917 205.427 24.4188 205.496 24.1626L206.014 22.2307L204.082 21.7131C203.826 21.6445 203.607 21.4769 203.475 21.2472C203.342 21.0175 203.306 20.7445 203.375 20.4883ZM214.379 29.6486C214.31 29.9047 214.143 30.1232 213.913 30.2558C213.683 30.3884 213.41 30.4243 213.154 30.3557L212.188 30.0968L211.929 31.0628C211.861 31.3189 211.693 31.5374 211.464 31.67C211.234 31.8026 210.961 31.8385 210.705 31.7699C210.449 31.7012 210.23 31.5336 210.097 31.3039C209.965 31.0743 209.929 30.8013 209.998 30.5451L210.256 29.5792L209.29 29.3204C209.034 29.2517 208.816 29.0841 208.683 28.8545C208.551 28.6248 208.515 28.3518 208.583 28.0956C208.652 27.8395 208.82 27.621 209.049 27.4884C209.279 27.3558 209.552 27.3199 209.808 27.3885L210.774 27.6474L211.033 26.6814C211.102 26.4252 211.269 26.2068 211.499 26.0742C211.728 25.9416 212.001 25.9057 212.258 25.9743C212.514 26.043 212.732 26.2106 212.865 26.4402C212.997 26.6699 213.033 26.9429 212.965 27.1991L212.706 28.165L213.672 28.4238C213.928 28.4925 214.146 28.66 214.279 28.8897C214.412 29.1194 214.448 29.3924 214.379 29.6486Z" fill="#2D5BFF"/>
</g>
<g clip-path="url(#clip1_528_146)">
<path opacity="0.2" d="M107.906 133.587L101.054 134.209C100.911 134.222 100.773 134.266 100.649 134.337C100.525 134.409 100.418 134.507 100.336 134.624L96.3702 140.247C96.2534 140.412 96.0887 140.537 95.8983 140.606C95.708 140.675 95.5011 140.684 95.3056 140.631C95.1101 140.579 94.9354 140.468 94.8049 140.313C94.6745 140.158 94.5946 139.967 94.576 139.766L93.9533 132.914C93.9405 132.771 93.8968 132.633 93.8252 132.509C93.7536 132.385 93.6559 132.278 93.5387 132.196L87.916 128.23C87.7507 128.113 87.6252 127.949 87.5564 127.758C87.4876 127.568 87.4788 127.361 87.5312 127.166C87.5836 126.97 87.6946 126.795 87.8494 126.665C88.0041 126.535 88.1952 126.455 88.3967 126.436L95.2489 125.813C95.3915 125.801 95.5296 125.757 95.6536 125.685C95.7776 125.614 95.8845 125.516 95.9669 125.399L99.9323 119.776C100.049 119.611 100.214 119.485 100.404 119.416C100.595 119.348 100.801 119.339 100.997 119.391C101.192 119.444 101.367 119.555 101.498 119.709C101.628 119.864 101.708 120.055 101.726 120.257L102.349 127.109C102.362 127.252 102.406 127.39 102.477 127.514C102.549 127.638 102.647 127.745 102.764 127.827L108.387 131.792C108.552 131.909 108.677 132.074 108.746 132.264C108.815 132.455 108.824 132.661 108.771 132.857C108.719 133.052 108.608 133.227 108.453 133.358C108.298 133.488 108.107 133.568 107.906 133.587Z" fill="#2D5BFF"/>
<path d="M108.963 130.975L103.346 127.011L102.723 120.16C102.686 119.755 102.526 119.37 102.263 119.059C102.001 118.748 101.65 118.524 101.256 118.419C100.863 118.313 100.447 118.331 100.064 118.47C99.6811 118.608 99.35 118.861 99.1153 119.194L95.1497 124.807L88.2988 125.43C87.8933 125.467 87.5089 125.628 87.1975 125.89C86.8861 126.152 86.6626 126.504 86.5572 126.897C86.4518 127.29 86.4696 127.707 86.6082 128.089C86.7467 128.472 86.9994 128.803 87.3321 129.038L92.9413 133.015L93.5653 139.863C93.6023 140.268 93.7627 140.653 94.025 140.964C94.2873 141.275 94.6388 141.499 95.0321 141.604C95.4254 141.71 95.8415 141.692 96.2243 141.553C96.6072 141.415 96.9383 141.162 97.1731 140.829L101.137 135.213L107.988 134.59C108.393 134.553 108.778 134.392 109.089 134.13C109.4 133.868 109.624 133.516 109.729 133.123C109.835 132.73 109.817 132.313 109.678 131.931C109.54 131.548 109.287 131.217 108.954 130.982L108.963 130.975ZM100.96 133.223C100.673 133.249 100.395 133.337 100.146 133.481C99.8967 133.624 99.6817 133.821 99.5159 134.056L95.557 139.655L94.9339 132.823C94.9076 132.538 94.8198 132.262 94.6765 132.014C94.5332 131.765 94.3379 131.551 94.1039 131.386L88.5053 127.427L95.3333 126.798C95.6187 126.771 95.8949 126.684 96.1431 126.54C96.3912 126.397 96.6054 126.202 96.7709 125.968L100.73 120.369L101.359 127.197C101.385 127.484 101.473 127.761 101.617 128.011C101.761 128.26 101.957 128.475 102.193 128.641L107.791 132.6L100.96 133.223ZM105.375 118.488C105.443 118.232 105.611 118.014 105.841 117.881C106.07 117.749 106.343 117.713 106.6 117.781L108.531 118.299L109.049 116.367C109.118 116.111 109.285 115.893 109.515 115.76C109.745 115.627 110.018 115.591 110.274 115.66C110.53 115.729 110.748 115.896 110.881 116.126C111.014 116.356 111.05 116.629 110.981 116.885L110.463 118.817L112.395 119.334C112.651 119.403 112.87 119.571 113.002 119.8C113.135 120.03 113.171 120.303 113.102 120.559C113.034 120.815 112.866 121.034 112.636 121.166C112.407 121.299 112.134 121.335 111.877 121.266L109.946 120.748L109.428 122.68C109.359 122.937 109.192 123.155 108.962 123.288C108.732 123.42 108.459 123.456 108.203 123.387C107.947 123.319 107.729 123.151 107.596 122.922C107.463 122.692 107.427 122.419 107.496 122.163L108.014 120.231L106.082 119.713C105.826 119.645 105.607 119.477 105.475 119.247C105.342 119.018 105.306 118.745 105.375 118.488ZM116.379 127.649C116.31 127.905 116.143 128.123 115.913 128.256C115.683 128.388 115.41 128.424 115.154 128.356L114.188 128.097L113.929 129.063C113.861 129.319 113.693 129.537 113.464 129.67C113.234 129.803 112.961 129.839 112.705 129.77C112.449 129.701 112.23 129.534 112.097 129.304C111.965 129.074 111.929 128.801 111.998 128.545L112.256 127.579L111.29 127.321C111.034 127.252 110.816 127.084 110.683 126.855C110.551 126.625 110.515 126.352 110.583 126.096C110.652 125.84 110.82 125.621 111.049 125.489C111.279 125.356 111.552 125.32 111.808 125.389L112.774 125.647L113.033 124.682C113.102 124.425 113.269 124.207 113.499 124.074C113.728 123.942 114.001 123.906 114.258 123.974C114.514 124.043 114.732 124.211 114.865 124.44C114.997 124.67 115.033 124.943 114.965 125.199L114.706 126.165L115.672 126.424C115.928 126.493 116.146 126.66 116.279 126.89C116.412 127.12 116.448 127.392 116.379 127.649Z" fill="#2D5BFF"/>
</g>
<g clip-path="url(#clip2_528_146)">
<path opacity="0.2" d="M26.9058 93.5867L20.0536 94.2094C19.911 94.2222 19.7729 94.2659 19.6489 94.3375C19.5249 94.4091 19.418 94.5069 19.3356 94.624L15.3702 100.247C15.2534 100.412 15.0887 100.538 14.8983 100.606C14.708 100.675 14.5011 100.684 14.3056 100.632C14.1101 100.579 13.9354 100.468 13.8049 100.313C13.6745 100.159 13.5946 99.9675 13.576 99.766L12.9533 92.9138C12.9405 92.7712 12.8968 92.6331 12.8252 92.5091C12.7536 92.3851 12.6559 92.2782 12.5387 92.1958L6.91595 88.2304C6.75068 88.1136 6.6252 87.9489 6.5564 87.7585C6.48761 87.5682 6.47881 87.3613 6.5312 87.1658C6.58358 86.9703 6.69463 86.7956 6.84939 86.6651C7.00414 86.5347 7.19516 86.4548 7.39671 86.4362L14.2489 85.8135C14.3915 85.8007 14.5296 85.757 14.6536 85.6854C14.7776 85.6138 14.8845 85.5161 14.9669 85.3989L18.9323 79.7762C19.0491 79.6109 19.2138 79.4854 19.4042 79.4166C19.5945 79.3478 19.8014 79.339 19.9969 79.3914C20.1924 79.4438 20.3671 79.5548 20.4976 79.7096C20.628 79.8644 20.7079 80.0554 20.7265 80.2569L21.3492 87.1091C21.362 87.2517 21.4057 87.3898 21.4773 87.5138C21.5489 87.6378 21.6466 87.7447 21.7638 87.8271L27.3865 91.7925C27.5518 91.9093 27.6773 92.074 27.7461 92.2644C27.8149 92.4547 27.8237 92.6616 27.7713 92.8571C27.7189 93.0526 27.6079 93.2273 27.4531 93.3578C27.2984 93.4883 27.1073 93.5681 26.9058 93.5867Z" fill="#2D5BFF"/>
<path d="M27.9628 90.975L22.3461 87.0112L21.723 80.1602C21.686 79.7548 21.5256 79.3704 21.2633 79.059C21.001 78.7475 20.6495 78.5241 20.2563 78.4187C19.863 78.3133 19.4468 78.3311 19.064 78.4697C18.6811 78.6082 18.35 78.8609 18.1153 79.1935L14.1497 84.8072L7.29876 85.4303C6.89329 85.4672 6.50891 85.6277 6.19749 85.89C5.88607 86.1522 5.6626 86.5037 5.55722 86.897C5.45184 87.2903 5.46963 87.7064 5.60819 88.0893C5.74674 88.4721 5.9994 88.8033 6.33207 89.038L11.9413 93.0153L12.5653 99.8626C12.6023 100.268 12.7627 100.652 13.025 100.964C13.2873 101.275 13.6388 101.499 14.0321 101.604C14.4254 101.71 14.8415 101.692 15.2243 101.553C15.6072 101.415 15.9383 101.162 16.1731 100.829L20.1369 95.2126L26.9878 94.5895C27.3933 94.5526 27.7777 94.3921 28.0891 94.1298C28.4005 93.8676 28.624 93.5161 28.7294 93.1228C28.8347 92.7295 28.8169 92.3134 28.6784 91.9305C28.5398 91.5477 28.2872 91.2165 27.9545 90.9818L27.9628 90.975ZM19.9596 93.2227C19.6729 93.2485 19.3953 93.3365 19.146 93.4804C18.8967 93.6243 18.6817 93.8208 18.5159 94.0562L14.557 99.6548L13.9339 92.8232C13.9076 92.5379 13.8198 92.2616 13.6765 92.0135C13.5332 91.7653 13.3379 91.5512 13.1039 91.3857L7.50532 87.4268L14.3333 86.7976C14.6187 86.7712 14.8949 86.6834 15.1431 86.5402C15.3912 86.3969 15.6054 86.2015 15.7709 85.9676L19.7298 80.369L20.359 87.197C20.3849 87.4837 20.4728 87.7613 20.6168 88.0106C20.7607 88.2599 20.9572 88.4749 21.1925 88.6406L26.7911 92.5996L19.9596 93.2227ZM24.3748 78.4883C24.4435 78.2322 24.6111 78.0138 24.8407 77.8811C25.0704 77.7485 25.3434 77.7126 25.5996 77.7812L27.5314 78.2989L28.0491 76.367C28.1177 76.1108 28.2853 75.8924 28.515 75.7598C28.7447 75.6272 29.0176 75.5913 29.2738 75.6599C29.53 75.7286 29.7484 75.8962 29.881 76.1258C30.0136 76.3555 30.0495 76.6285 29.9809 76.8847L29.4633 78.8165L31.3951 79.3342C31.6513 79.4028 31.8697 79.5704 32.0023 79.8001C32.1349 80.0298 32.1709 80.3027 32.1022 80.5589C32.0336 80.8151 31.866 81.0335 31.6363 81.1661C31.4066 81.2987 31.1337 81.3347 30.8775 81.266L28.9456 80.7484L28.428 82.6802C28.3593 82.9364 28.1917 83.1548 27.9621 83.2874C27.7324 83.42 27.4594 83.456 27.2032 83.3873C26.9471 83.3187 26.7286 83.1511 26.596 82.9214C26.4634 82.6917 26.4275 82.4188 26.4961 82.1626L27.0138 80.2307L25.0819 79.7131C24.8257 79.6445 24.6073 79.4769 24.4747 79.2472C24.3421 79.0175 24.3062 78.7445 24.3748 78.4883ZM35.3789 87.6486C35.3103 87.9047 35.1427 88.1232 34.913 88.2558C34.6833 88.3884 34.4104 88.4243 34.1542 88.3557L33.1883 88.0968L32.9294 89.0628C32.8608 89.3189 32.6932 89.5374 32.4635 89.67C32.2338 89.8026 31.9609 89.8385 31.7047 89.7699C31.4485 89.7012 31.2301 89.5336 31.0975 89.3039C30.9649 89.0743 30.929 88.8013 30.9976 88.5451L31.2564 87.5792L30.2905 87.3204C30.0343 87.2517 29.8159 87.0841 29.6833 86.8545C29.5507 86.6248 29.5147 86.3518 29.5834 86.0956C29.652 85.8395 29.8196 85.621 30.0493 85.4884C30.279 85.3558 30.5519 85.3199 30.8081 85.3885L31.7741 85.6474L32.0329 84.6814C32.1015 84.4252 32.2691 84.2068 32.4988 84.0742C32.7285 83.9416 33.0014 83.9057 33.2576 83.9743C33.5138 84.043 33.7322 84.2106 33.8648 84.4402C33.9974 84.6699 34.0334 84.9429 33.9647 85.1991L33.7059 86.165L34.6718 86.4238C34.928 86.4925 35.1464 86.66 35.279 86.8897C35.4116 87.1194 35.4476 87.3924 35.3789 87.6486Z" fill="#2D5BFF"/>
</g>
<g clip-path="url(#clip3_528_146)">
<path opacity="0.2" d="M107.112 51.228L104.783 56.7577C103.967 58.6986 102.61 60.3643 100.874 61.5569C99.1387 62.7494 97.0973 63.4188 94.9926 63.4854L86.5367 59.9248C85.1136 58.3726 84.1659 56.4446 83.8062 54.3698C83.4465 52.295 83.69 50.1605 84.5076 48.2199L86.8361 42.6902L107.112 51.228Z" fill="#2D5BFF"/>
<path d="M93.9181 41.3321L95.4705 37.6456C95.5734 37.4012 95.7692 37.2077 96.0148 37.1076C96.2604 37.0076 96.5357 37.0092 96.7802 37.1121C97.0246 37.215 97.2181 37.4108 97.3182 37.6565C97.4182 37.9021 97.4166 38.1774 97.3137 38.4218L95.7614 42.1083C95.6585 42.3527 95.4626 42.5463 95.217 42.6463C94.9714 42.7464 94.6961 42.7448 94.4517 42.6418C94.2072 42.5389 94.0137 42.3431 93.9137 42.0975C93.8136 41.8519 93.8152 41.5766 93.9181 41.3321ZM98.1382 44.1942C98.3826 44.2971 98.6579 44.2987 98.9035 44.1987C99.1491 44.0986 99.345 43.9051 99.4479 43.6606L101 39.9741C101.103 39.7297 101.105 39.4544 101.005 39.2088C100.905 38.9632 100.711 38.7674 100.467 38.6644C100.222 38.5615 99.9469 38.5599 99.7013 38.6599C99.4557 38.76 99.2599 38.9535 99.157 39.198L97.6046 42.8845C97.5017 43.1289 97.5001 43.4042 97.6002 43.6498C97.7002 43.8954 97.8937 44.0913 98.1382 44.1942ZM101.825 45.7465C102.069 45.8494 102.344 45.851 102.59 45.751C102.836 45.6509 103.031 45.4574 103.134 45.213L104.687 41.5265C104.79 41.282 104.791 41.0067 104.691 40.7611C104.591 40.5155 104.398 40.3197 104.153 40.2168C103.909 40.1138 103.633 40.1122 103.388 40.2123C103.142 40.3123 102.946 40.5059 102.843 40.7503L101.291 44.4368C101.188 44.6812 101.187 44.9565 101.287 45.2021C101.387 45.4478 101.58 45.6436 101.825 45.7465ZM110.168 56.8549L109.78 57.7765C109.286 58.9486 108.363 59.8884 107.201 60.4045C106.038 60.9206 104.723 60.9743 103.522 60.5546C102.145 62.0681 100.405 63.2067 98.467 63.8633L101.291 65.0523C101.535 65.1553 101.729 65.3511 101.829 65.5967C101.929 65.8423 101.927 66.1176 101.824 66.362C101.721 66.6065 101.525 66.8 101.28 66.9001C101.034 67.0001 100.759 66.9985 100.514 66.8956L80.2387 58.3578C79.9942 58.2549 79.8007 58.059 79.7006 57.8134C79.6006 57.5678 79.6022 57.2925 79.7051 57.0481C79.8081 56.8036 80.0039 56.6101 80.2495 56.5101C80.4951 56.41 80.7704 56.4116 81.0148 56.5145L83.8419 57.705C83.1035 56.171 82.6989 54.4978 82.6547 52.7959C82.6106 51.0939 82.928 49.402 83.5859 47.8318L85.9144 42.3021C86.0174 42.0576 86.2132 41.8641 86.4588 41.7641C86.7044 41.664 86.9797 41.6656 87.2241 41.7685L107.5 50.3063C108.722 50.821 109.69 51.8 110.19 53.0281C110.69 54.2562 110.682 55.6327 110.168 56.8549ZM105.802 51.7615L87.3696 43.9999L85.4292 48.608C84.7041 50.3399 84.4795 52.2406 84.7809 54.0938C85.0824 55.9471 85.8978 57.6785 87.1344 59.0914L95.171 62.4755C97.0458 62.3728 98.8542 61.7461 100.39 60.6668C101.927 59.5874 103.129 58.0986 103.862 56.3696L105.802 51.7615ZM108.324 56.0787C108.565 55.507 108.622 54.8748 108.489 54.2692C108.355 53.6635 108.037 53.1141 107.578 52.6966L105.705 57.1458C105.461 57.7242 105.171 58.2826 104.839 58.8156C105.482 58.8875 106.131 58.7495 106.689 58.4224C107.247 58.0952 107.685 57.5964 107.936 57.0003L108.324 56.0787Z" fill="#2D5BFF"/>
</g>
<g clip-path="url(#clip4_528_146)">
<path opacity="0.2" d="M190.112 110.228L187.783 115.758C186.967 117.699 185.61 119.364 183.874 120.557C182.139 121.749 180.097 122.419 177.993 122.485L169.537 118.925C168.114 117.373 167.166 115.445 166.806 113.37C166.447 111.295 166.69 109.161 167.508 107.22L169.836 101.69L190.112 110.228Z" fill="#2D5BFF"/>
<path d="M176.918 100.332L178.47 96.6458C178.573 96.4013 178.769 96.2078 179.015 96.1077C179.26 96.0077 179.536 96.0093 179.78 96.1122C180.025 96.2151 180.218 96.411 180.318 96.6566C180.418 96.9022 180.417 97.1775 180.314 97.4219L178.761 101.108C178.658 101.353 178.463 101.546 178.217 101.646C177.971 101.747 177.696 101.745 177.452 101.642C177.207 101.539 177.014 101.343 176.914 101.098C176.814 100.852 176.815 100.577 176.918 100.332ZM181.138 103.194C181.383 103.297 181.658 103.299 181.904 103.199C182.149 103.099 182.345 102.905 182.448 102.661L184 98.9743C184.103 98.7298 184.105 98.4545 184.005 98.2089C183.905 97.9633 183.711 97.7675 183.467 97.6645C183.222 97.5616 182.947 97.56 182.701 97.6601C182.456 97.7601 182.26 97.9537 182.157 98.1981L180.605 101.885C180.502 102.129 180.5 102.404 180.6 102.65C180.7 102.896 180.894 103.091 181.138 103.194ZM184.825 104.747C185.069 104.85 185.344 104.851 185.59 104.751C185.836 104.651 186.031 104.458 186.134 104.213L187.687 100.527C187.79 100.282 187.791 100.007 187.691 99.7612C187.591 99.5156 187.398 99.3198 187.153 99.2169C186.909 99.1139 186.633 99.1123 186.388 99.2124C186.142 99.3125 185.946 99.506 185.843 99.7504L184.291 103.437C184.188 103.681 184.187 103.957 184.287 104.202C184.387 104.448 184.58 104.644 184.825 104.747ZM193.168 115.855L192.78 116.777C192.286 117.949 191.363 118.888 190.201 119.405C189.038 119.921 187.723 119.974 186.522 119.555C185.145 121.068 183.405 122.207 181.467 122.863L184.291 124.052C184.535 124.155 184.729 124.351 184.829 124.597C184.929 124.842 184.927 125.118 184.824 125.362C184.721 125.607 184.525 125.8 184.28 125.9C184.034 126 183.759 125.999 183.514 125.896L163.239 117.358C162.994 117.255 162.801 117.059 162.701 116.814C162.601 116.568 162.602 116.293 162.705 116.048C162.808 115.804 163.004 115.61 163.249 115.51C163.495 115.41 163.77 115.412 164.015 115.515L166.842 116.705C166.103 115.171 165.699 113.498 165.655 111.796C165.611 110.094 165.928 108.402 166.586 106.832L168.914 101.302C169.017 101.058 169.213 100.864 169.459 100.764C169.704 100.664 169.98 100.666 170.224 100.769L190.5 109.306C191.722 109.821 192.69 110.8 193.19 112.028C193.69 113.256 193.682 114.633 193.168 115.855ZM188.802 110.762L170.37 103L168.429 107.608C167.704 109.34 167.479 111.241 167.781 113.094C168.082 114.947 168.898 116.679 170.134 118.092L178.171 121.476C180.046 121.373 181.854 120.746 183.39 119.667C184.927 118.587 186.129 117.099 186.862 115.37L188.802 110.762ZM191.324 115.079C191.565 114.507 191.622 113.875 191.489 113.269C191.355 112.664 191.037 112.114 190.578 111.697L188.705 116.146C188.461 116.724 188.171 117.283 187.839 117.816C188.482 117.888 189.131 117.75 189.689 117.423C190.247 117.095 190.685 116.597 190.936 116L191.324 115.079Z" fill="#2D5BFF"/>
</g>
<g clip-path="url(#clip5_528_146)">
<path opacity="0.2" d="M372.112 98.228L369.783 103.758C368.967 105.699 367.61 107.364 365.874 108.557C364.139 109.749 362.097 110.419 359.993 110.485L351.537 106.925C350.114 105.373 349.166 103.445 348.806 101.37C348.447 99.295 348.69 97.1605 349.508 95.2199L351.836 89.6902L372.112 98.228Z" fill="#2D5BFF"/>
<path d="M358.918 88.3321L360.471 84.6456C360.573 84.4012 360.769 84.2077 361.015 84.1076C361.26 84.0076 361.536 84.0092 361.78 84.1121C362.025 84.215 362.218 84.4108 362.318 84.6565C362.418 84.9021 362.417 85.1774 362.314 85.4218L360.761 89.1083C360.659 89.3527 360.463 89.5463 360.217 89.6463C359.971 89.7464 359.696 89.7448 359.452 89.6418C359.207 89.5389 359.014 89.3431 358.914 89.0975C358.814 88.8519 358.815 88.5766 358.918 88.3321ZM363.138 91.1942C363.383 91.2971 363.658 91.2987 363.904 91.1987C364.149 91.0986 364.345 90.9051 364.448 90.6606L366 86.9741C366.103 86.7297 366.105 86.4544 366.005 86.2088C365.905 85.9632 365.711 85.7674 365.467 85.6644C365.222 85.5615 364.947 85.5599 364.701 85.6599C364.456 85.76 364.26 85.9535 364.157 86.198L362.605 89.8845C362.502 90.1289 362.5 90.4042 362.6 90.6498C362.7 90.8954 362.894 91.0913 363.138 91.1942ZM366.825 92.7465C367.069 92.8494 367.344 92.851 367.59 92.751C367.836 92.6509 368.032 92.4574 368.134 92.213L369.687 88.5265C369.79 88.282 369.791 88.0067 369.691 87.7611C369.591 87.5155 369.398 87.3197 369.153 87.2168C368.909 87.1138 368.633 87.1122 368.388 87.2123C368.142 87.3123 367.946 87.5059 367.844 87.7503L366.291 91.4368C366.188 91.6812 366.187 91.9565 366.287 92.2021C366.387 92.4478 366.58 92.6436 366.825 92.7465ZM375.168 103.855L374.78 104.776C374.286 105.949 373.364 106.888 372.201 107.404C371.038 107.921 369.723 107.974 368.522 107.555C367.145 109.068 365.405 110.207 363.467 110.863L366.291 112.052C366.535 112.155 366.729 112.351 366.829 112.597C366.929 112.842 366.927 113.118 366.824 113.362C366.721 113.606 366.525 113.8 366.28 113.9C366.034 114 365.759 113.999 365.514 113.896L345.239 105.358C344.994 105.255 344.801 105.059 344.701 104.813C344.601 104.568 344.602 104.293 344.705 104.048C344.808 103.804 345.004 103.61 345.25 103.51C345.495 103.41 345.77 103.412 346.015 103.515L348.842 104.705C348.104 103.171 347.699 101.498 347.655 99.7959C347.611 98.0939 347.928 96.402 348.586 94.8318L350.914 89.3021C351.017 89.0576 351.213 88.8641 351.459 88.7641C351.704 88.664 351.98 88.6656 352.224 88.7685L372.5 97.3063C373.722 97.821 374.69 98.8 375.19 100.028C375.69 101.256 375.682 102.633 375.168 103.855ZM370.802 98.7615L352.37 90.9999L350.429 95.608C349.704 97.3399 349.48 99.2406 349.781 101.094C350.082 102.947 350.898 104.679 352.134 106.091L360.171 109.475C362.046 109.373 363.854 108.746 365.391 107.667C366.927 106.587 368.13 105.099 368.862 103.37L370.802 98.7615ZM373.324 103.079C373.565 102.507 373.622 101.875 373.489 101.269C373.355 100.663 373.037 100.114 372.578 99.6966L370.705 104.146C370.461 104.724 370.171 105.283 369.839 105.816C370.482 105.887 371.131 105.75 371.689 105.422C372.247 105.095 372.685 104.596 372.936 104L373.324 103.079Z" fill="#2D5BFF"/>
</g>
<rect x="250.602" y="46.8514" width="45.3333" height="39.6667" transform="rotate(35.5955 250.602 46.8514)" fill="#2D5BFF"/>
<path d="M307.757 53.9151L308.801 54.6619C309.356 55.0579 309.744 55.6491 309.897 56.3301C310.05 57.0111 309.957 57.7375 309.634 58.3798L304.124 69.3688C303.927 69.7622 303.65 70.1114 303.313 70.3922C302.975 70.6731 302.585 70.8788 302.17 70.9951C301.755 71.1114 301.324 71.1355 300.908 71.0658C300.492 70.9961 300.101 70.8341 299.761 70.5912L296.155 68.0094L263.135 108.109C262.647 108.701 261.966 109.094 261.228 109.209C260.491 109.324 259.752 109.152 259.161 108.728L226.114 85.0732C225.521 84.6508 225.119 84.0067 224.989 83.2708C224.859 82.5349 225.011 81.762 225.415 81.1081L252.736 36.9302L249.143 34.3584C248.804 34.1152 248.525 33.7969 248.324 33.4256C248.124 33.0544 248.008 32.6391 247.985 32.2086C247.961 31.7781 248.03 31.3427 248.187 30.9326C248.344 30.5226 248.585 30.1478 248.894 29.8342L257.52 21.0754C258.024 20.5632 258.681 20.2409 259.375 20.1659C260.069 20.0909 260.754 20.2682 261.308 20.666L262.332 21.3993L267.015 13.82C267.234 13.4651 267.52 13.1562 267.856 12.9127C268.192 12.6692 268.57 12.4963 268.967 12.4048C269.364 12.3133 269.771 12.3051 270.162 12.3808C270.554 12.4565 270.922 12.6145 271.243 12.8448L312.982 42.7218C313.304 42.9518 313.572 43.2492 313.77 43.5955C313.968 43.9419 314.091 44.3297 314.133 44.7348C314.174 45.1399 314.132 45.5536 314.01 45.9501C313.888 46.3465 313.688 46.7172 313.422 47.0391L307.757 53.9151ZM303.07 50.5598L306.936 45.8606L270.222 19.58L267.02 24.7547L303.07 50.5598ZM255.933 31.7521L300.535 63.6786L303.288 58.1824L259.753 27.0194L255.438 31.3971L255.933 31.7521ZM257.424 40.2856L231.824 81.6933L260.52 102.234L291.462 64.6507L257.424 40.2856Z" fill="#3B3B3F"/>
<path d="M249.825 46.4559V46.4559C256.476 47.8274 262.492 51.3501 266.943 56.4803L269.06 58.9206C273.672 64.2373 279.186 68.6995 285.347 72.1024L286.687 72.8426" stroke="#3B3B3F" stroke-width="6"/>
<g clip-path="url(#clip6_528_146)">
<path opacity="0.2" d="M414.906 24.5867L408.054 25.2094C407.911 25.2222 407.773 25.2659 407.649 25.3375C407.525 25.4091 407.418 25.5069 407.336 25.624L403.37 31.2468C403.253 31.412 403.089 31.5375 402.898 31.6063C402.708 31.6751 402.501 31.6839 402.306 31.6315C402.11 31.5791 401.935 31.4681 401.805 31.3133C401.674 31.1586 401.595 30.9675 401.576 30.766L400.953 23.9138C400.941 23.7712 400.897 23.6331 400.825 23.5091C400.754 23.3851 400.656 23.2782 400.539 23.1958L394.916 19.2304C394.751 19.1136 394.625 18.9489 394.556 18.7585C394.488 18.5682 394.479 18.3613 394.531 18.1658C394.584 17.9703 394.695 17.7956 394.849 17.6651C395.004 17.5347 395.195 17.4548 395.397 17.4362L402.249 16.8135C402.391 16.8007 402.53 16.757 402.654 16.6854C402.778 16.6138 402.885 16.5161 402.967 16.3989L406.932 10.7762C407.049 10.6109 407.214 10.4854 407.404 10.4166C407.595 10.3478 407.801 10.339 407.997 10.3914C408.192 10.4438 408.367 10.5548 408.498 10.7096C408.628 10.8644 408.708 11.0554 408.726 11.2569L409.349 18.1091C409.362 18.2517 409.406 18.3898 409.477 18.5138C409.549 18.6378 409.647 18.7447 409.764 18.8271L415.387 22.7925C415.552 22.9093 415.677 23.074 415.746 23.2644C415.815 23.4547 415.824 23.6616 415.771 23.8571C415.719 24.0526 415.608 24.2273 415.453 24.3578C415.298 24.4883 415.107 24.5681 414.906 24.5867Z" fill="#2D5BFF"/>
<path d="M415.963 21.975L410.346 18.0112L409.723 11.1602C409.686 10.7548 409.526 10.3704 409.263 10.059C409.001 9.74754 408.65 9.52406 408.256 9.41868C407.863 9.3133 407.447 9.33109 407.064 9.46965C406.681 9.60821 406.35 9.86087 406.115 10.1935L402.15 15.8072L395.299 16.4303C394.893 16.4672 394.509 16.6277 394.197 16.89C393.886 17.1522 393.663 17.5037 393.557 17.897C393.452 18.2903 393.47 18.7064 393.608 19.0893C393.747 19.4721 393.999 19.8033 394.332 20.038L399.941 24.0153L400.565 30.8626C400.602 31.2681 400.763 31.6525 401.025 31.9639C401.287 32.2753 401.639 32.4988 402.032 32.6042C402.425 32.7096 402.841 32.6918 403.224 32.5532C403.607 32.4147 403.938 32.162 404.173 31.8293L408.137 26.2126L414.988 25.5895C415.393 25.5526 415.778 25.3921 416.089 25.1298C416.4 24.8676 416.624 24.5161 416.729 24.1228C416.835 23.7295 416.817 23.3134 416.678 22.9305C416.54 22.5477 416.287 22.2165 415.954 21.9818L415.963 21.975ZM407.96 24.2227C407.673 24.2485 407.395 24.3365 407.146 24.4804C406.897 24.6243 406.682 24.8208 406.516 25.0562L402.557 30.6548L401.934 23.8232C401.908 23.5379 401.82 23.2616 401.677 23.0135C401.533 22.7653 401.338 22.5512 401.104 22.3857L395.505 18.4268L402.333 17.7976C402.619 17.7712 402.895 17.6834 403.143 17.5402C403.391 17.3969 403.605 17.2015 403.771 16.9676L407.73 11.369L408.359 18.197C408.385 18.4837 408.473 18.7613 408.617 19.0106C408.761 19.2599 408.957 19.4749 409.193 19.6406L414.791 23.5996L407.96 24.2227ZM412.375 9.48835C412.443 9.23217 412.611 9.01375 412.841 8.88114C413.07 8.74854 413.343 8.7126 413.6 8.78124L415.531 9.29888L416.049 7.36703C416.118 7.11085 416.285 6.89243 416.515 6.75982C416.745 6.62721 417.018 6.59128 417.274 6.65992C417.53 6.72857 417.748 6.89616 417.881 7.12585C418.014 7.35553 418.05 7.62849 417.981 7.88467L417.463 9.81652L419.395 10.3342C419.651 10.4028 419.87 10.5704 420.002 10.8001C420.135 11.0298 420.171 11.3027 420.102 11.5589C420.034 11.8151 419.866 12.0335 419.636 12.1661C419.407 12.2987 419.134 12.3347 418.877 12.266L416.946 11.7484L416.428 13.6802C416.359 13.9364 416.192 14.1548 415.962 14.2874C415.732 14.42 415.459 14.456 415.203 14.3873C414.947 14.3187 414.729 14.1511 414.596 13.9214C414.463 13.6917 414.427 13.4188 414.496 13.1626L415.014 11.2307L413.082 10.7131C412.826 10.6445 412.607 10.4769 412.475 10.2472C412.342 10.0175 412.306 9.74453 412.375 9.48835ZM423.379 18.6486C423.31 18.9047 423.143 19.1232 422.913 19.2558C422.683 19.3884 422.41 19.4243 422.154 19.3557L421.188 19.0968L420.929 20.0628C420.861 20.3189 420.693 20.5374 420.464 20.67C420.234 20.8026 419.961 20.8385 419.705 20.7699C419.449 20.7012 419.23 20.5336 419.097 20.3039C418.965 20.0743 418.929 19.8013 418.998 19.5451L419.256 18.5792L418.29 18.3204C418.034 18.2517 417.816 18.0841 417.683 17.8545C417.551 17.6248 417.515 17.3518 417.583 17.0956C417.652 16.8395 417.82 16.621 418.049 16.4884C418.279 16.3558 418.552 16.3199 418.808 16.3885L419.774 16.6474L420.033 15.6814C420.102 15.4252 420.269 15.2068 420.499 15.0742C420.728 14.9416 421.001 14.9057 421.258 14.9743C421.514 15.043 421.732 15.2106 421.865 15.4402C421.997 15.6699 422.033 15.9429 421.965 16.1991L421.706 17.165L422.672 17.4238C422.928 17.4925 423.146 17.66 423.279 17.8897C423.412 18.1194 423.448 18.3924 423.379 18.6486Z" fill="#2D5BFF"/>
</g>
<defs>
<clipPath id="clip0_528_146">
<rect width="32" height="32" fill="white" transform="translate(187.282 11) rotate(15)"/>
</clipPath>
<clipPath id="clip1_528_146">
<rect width="32" height="32" fill="white" transform="translate(89.2822 109) rotate(15)"/>
</clipPath>
<clipPath id="clip2_528_146">
<rect width="32" height="32" fill="white" transform="translate(8.28223 69) rotate(15)"/>
</clipPath>
<clipPath id="clip3_528_146">
<rect width="32" height="32" fill="white" transform="translate(87.4185 31) rotate(22.8352)"/>
</clipPath>
<clipPath id="clip4_528_146">
<rect width="32" height="32" fill="white" transform="translate(170.418 90) rotate(22.8352)"/>
</clipPath>
<clipPath id="clip5_528_146">
<rect width="32" height="32" fill="white" transform="translate(352.418 78) rotate(22.8352)"/>
</clipPath>
<clipPath id="clip6_528_146">
<rect width="32" height="32" fill="white" transform="translate(396.282) rotate(15)"/>
</clipPath>
</defs>
</svg>
